<?xml version="1.0" encoding="UTF-8" standalone="no"?>
<svg width="64" height="64" viewBox="-32 -32 64 64" xmlns="http://www.w3.org/2000/svg" style="transform-origin: center center;">
	<style>
	#odilogo-starburst rect2 { transform-origin: center center; -webkit-transform-origin: center center; }
	</style>
	<defs>
		<clipPath id="myClip">
			<path d="M -25, 0 a 10,10 0 1,0 20,0 l 40,0 0,50 -100,0 0,-100 100,0 0,50 -40,0 a 10,10 0 1,0 -20,0" fill="red"/>
		</clipPath>
	</defs>
	<g id="odilogo-starburst" clip-path="url(#myClip)" transform="translate(-20,0)">
		<rect width="4" height="25" x="-2" transform="rotate(7)" fill="#2254F4"><animate attributeName="height" begin="0s" dur="4s" values="25;19;23;29;26;25;31;21;25" calcMode="linear" repeatCount="indefinite"/></rect>
		<rect width="4" height="25" x="-2" transform="rotate(27)" fill="#F9BC26"><animate attributeName="height" begin="0s" dur="2s" values="25;29;23;20;25" calcMode="linear" repeatCount="indefinite"/></rect>
		<rect width="4" height="25" x="-2" transform="rotate(47)" fill="#00B6FF"><animate attributeName="height" begin="0s" dur="1s" values="25;20;27;25;" calcMode="linear" repeatCount="indefinite"/></rect>
		<rect width="4" height="25" x="-2" transform="rotate(67)" fill="#D60303"><animate attributeName="height" begin="0s" dur="5s" values="25;15;27;25;32;16;24;27;18;32;25" calcMode="linear" repeatCount="indefinite"/></rect>
		<rect width="4" height="25" x="-2" transform="rotate(87)" fill="#722EA5"><animate attributeName="height" begin="0s" dur="6s" values="25;19;26;30;21;24;29;27;15;23;20;29;25" calcMode="linear" repeatCount="indefinite"/></rect>
		<rect width="4" height="25" x="-2" transform="rotate(107)" fill="#1DD3A7"><animate attributeName="height" begin="0s" dur="3s" values="25;27;24;32;23;19;25" calcMode="linear" repeatCount="indefinite"/></rect>
		<rect width="4" height="25" x="-2" transform="rotate(127)" fill="#EF3AAB"><animate attributeName="height" begin="0s" dur="2s" values="25;20;22;32;25" calcMode="linear" repeatCount="indefinite"/></rect>
		<rect width="4" height="25" x="-2" transform="rotate(147)" fill="#FF6700"><animate attributeName="height" begin="0s" dur="4s" values="25;24;18;23;27;23;29;21;25" calcMode="linear" repeatCount="indefinite"/></rect>
		<rect width="4" height="25" x="-2" transform="rotate(167)" fill="#0DBC37"><animate attributeName="height" begin="0s" dur="4s" values="25;15;27;25;24;32;16;24;25" calcMode="linear" repeatCount="indefinite"/></rect>
		<rect width="4" height="25" x="-2" transform="rotate(187)" fill="#178CFF"><animate attributeName="height" begin="0s" dur="5s" values="25;18;23;21;31;20;24;21;28;31;25" calcMode="linear" repeatCount="indefinite"/></rect>
		<rect width="4" height="25" x="-2" transform="rotate(207)" fill="#722EA5"><animate attributeName="height" begin="0s" dur="3s" values="25;32;16;24;19;27;25" calcMode="linear" repeatCount="indefinite"/></rect>
		<rect width="4" height="25" x="-2" transform="rotate(227)" fill="#D73058"><animate attributeName="height" begin="0s" dur="5s" values="25;23;25;28;18;27;24;30;31;28;25" calcMode="linear" repeatCount="indefinite"/></rect>
		<rect width="4" height="25" x="-2" transform="rotate(247)" fill="#00B6FF"><animate attributeName="height" begin="0s" dur="4s" values="25;19;23;29;26;25;31;21;25" calcMode="linear" repeatCount="indefinite"/></rect>
		<rect width="4" height="25" x="-2" transform="rotate(267)" fill="#67E767"><animate attributeName="height" begin="0s" dur="2s" values="25;29;23;20;25" calcMode="linear" repeatCount="indefinite"/></rect>
		<rect width="4" height="25" x="-2" transform="rotate(287)" fill="#E6007C"><animate attributeName="height" begin="0s" dur="1s" values="25;20;27;25;" calcMode="linear" repeatCount="indefinite"/></rect>
		<rect width="4" height="25" x="-2" transform="rotate(307)" fill="#0DBC37"><animate attributeName="height" begin="0s" dur="5s" values="25;15;27;25;32;16;24;27;18;32;25" calcMode="linear" repeatCount="indefinite"/></rect>
		<rect width="4" height="25" x="-2" transform="rotate(327)" fill="#D60303"><animate attributeName="height" begin="0s" dur="6s" values="25;19;26;30;21;24;29;27;15;23;20;29;25" calcMode="linear" repeatCount="indefinite"/></rect>
		<rect width="4" height="25" x="-2" transform="rotate(347)" fill="#08DEF9"><animate attributeName="height" begin="0s" dur="3s" values="25;27;24;32;23;19;25" calcMode="linear" repeatCount="indefinite"/></rect>
	</g>
	<g id="odilogo" transform="scale(0.6,0.6) translate(-124,-1006.6)">
		<circle cx="65.4" cy="1006.6" r="15" fill="black" fill-opacity="0.3"/>
		<rect style="opacity:1;fill:#000000;fill-opacity:0.5;stroke:none;stroke-width:3;stroke-linecap:round;stroke-linejoin:round;stroke-miterlimit:4;stroke-dasharray:9, 9;stroke-dashoffset:0;stroke-opacity:1" id="rect4141" width="35.179" height="10" x="87.92" y="1001.7"/>
		<path d="m 65.39,989.07 c -4.711,0 -9.141,1.84 -12.473,5.17 -3.333,3.33 -5.168,7.76 -5.168,12.46 0,4.7 1.835,9.1 5.168,12.5 3.332,3.3 7.762,5.1 12.473,5.1 4.71,0 9.14,-1.8 12.48,-5.1 1.72,-1.7 3.03,-3.8 3.91,-6 l 0,10.9 14.98,0 c 2.59,0 5.02,-0.4 7.22,-1.3 2.17,-0.8 4.07,-2 5.66,-3.5 1.77,-1.7 3.08,-3.7 3.92,-6 l 0,10.8 16.52,0 0,-34.76 -16.52,0 0,10.76 c -0.84,-2.29 -2.15,-4.34 -3.92,-6.03 -1.58,-1.52 -3.49,-2.7 -5.66,-3.51 -2.2,-0.82 -4.63,-1.23 -7.22,-1.23 l -14.98,0 0,10.87 c -0.88,-2.22 -2.19,-4.24 -3.91,-5.96 -3.34,-3.33 -7.77,-5.17 -12.48,-5.17 z m 0,2.82 c 8.19,0 14.82,6.64 14.82,14.81 0,8.2 -6.63,14.8 -14.82,14.8 -8.186,0 -14.821,-6.6 -14.821,-14.8 0,-8.17 6.635,-14.81 14.821,-14.81 z m -3.093,10.81 c -0.588,0 -1.057,0.1 -1.404,0.3 -0.349,0.2 -0.614,0.5 -0.799,0.8 -0.186,0.4 -0.309,0.8 -0.359,1.3 -0.05,0.5 -0.08,1 -0.08,1.6 0,0.6 0.02,1.2 0.08,1.7 0.05,0.4 0.174,0.9 0.359,1.2 0.185,0.4 0.448,0.7 0.799,0.8 0.346,0.2 0.815,0.3 1.404,0.3 0.586,0 1.053,-0.1 1.403,-0.3 0.35,-0.1 0.62,-0.4 0.8,-0.8 0.19,-0.3 0.3,-0.8 0.36,-1.2 0,-0.5 0.1,-1.1 0.1,-1.7 0,-0.6 0,-1.1 -0.1,-1.6 -0.1,-0.5 -0.17,-0.9 -0.36,-1.3 -0.18,-0.3 -0.45,-0.6 -0.8,-0.8 -0.35,-0.2 -0.817,-0.3 -1.403,-0.3 z m -9.379,0.1 0,7.8 1.436,0 0,-5.4 0.02,0 1.916,5.4 1.785,0 0,0 0,-7.8 -1.438,0 0,5.4 -0.02,0 -1.895,-5.4 -1.807,0 z m 13.672,0 0,7.8 2.47,0 c 0.53,0 0.96,-0.1 1.3,-0.2 0.34,-0.2 0.61,-0.4 0.81,-0.8 0.21,-0.3 0.33,-0.7 0.43,-1.2 0.13,-0.5 0.13,-1.1 0.13,-1.8 0,-0.6 0,-1.1 -0.1,-1.5 -0.1,-0.5 -0.19,-0.9 -0.37,-1.2 -0.19,-0.4 -0.45,-0.6 -0.78,-0.8 -0.34,-0.2 -0.77,-0.3 -1.32,-0.3 z m 6.82,0 0,7.8 4.45,0 0,-1.3 -2.88,0 0,-2.1 2.61,0 0,-1.3 -2.61,0 0,-1.8 2.78,0 0,-1.3 z m -11.113,1 c 0.231,0 0.419,0.1 0.559,0.2 0.141,0.1 0.246,0.3 0.326,0.5 0.07,0.2 0.124,0.5 0.154,0.9 0.03,0.4 0.04,0.8 0.04,1.3 0,0.5 -0.01,1 -0.04,1.4 -0.03,0.3 -0.07,0.6 -0.154,0.8 -0.08,0.3 -0.184,0.4 -0.326,0.5 -0.14,0.2 -0.328,0.2 -0.559,0.2 -0.235,0 -0.419,0 -0.56,-0.2 -0.143,-0.1 -0.248,-0.2 -0.328,-0.5 -0.07,-0.2 -0.133,-0.5 -0.153,-0.8 -0.03,-0.4 -0.04,-0.9 -0.04,-1.4 0,-0.5 0,-0.9 0.04,-1.3 0.02,-0.4 0.07,-0.7 0.153,-0.9 0.08,-0.2 0.185,-0.4 0.328,-0.5 0.141,-0.1 0.326,-0.2 0.56,-0.2 z m 5.863,0.2 0.66,0 c 0.3,0 0.54,0 0.72,0.2 0.17,0.1 0.3,0.2 0.4,0.5 l 0,0 c 0.1,0.2 0.18,0.5 0.18,0.8 l 0,1.2 0,1.3 c 0,0.3 -0.1,0.6 -0.19,0.8 -0.1,0.3 -0.23,0.4 -0.4,0.5 -0.17,0.1 -0.39,0.2 -0.66,0.2 l -0.7,0 0,-5.5 z" id="path4452" style="fill:#ffffff;fill-opacity:1"/>
		<g style="font-style:normal;font-variant:normal;font-weight:bold;font-stretch:normal;font-size:40px;line-height:100%;font-family:'Helvetica Neue';-inkscape-font-specification:'Helvetica Neue Bold';text-align:start;letter-spacing:0px;word-spacing:0px;writing-mode:lr-tb;text-anchor:start;fill:#ffffff;fill-opacity:1;stroke:none;stroke-width:1px;stroke-linecap:butt;stroke-linejoin:miter;stroke-opacity:1" id="text4141">
			<path d="m 140.66,999.78 0,13.82 9.78,0 0,-2.5 -6.74,0 0,-11.32 -3.04,0 z" style="font-size:19.375px;line-height:100%;fill:#ffffff;fill-opacity:1" id="path4168"/>
			<path d="m 152.12,999.78 0,13.82 10.5,0 0,-2.5 -7.46,0 0,-3.4 6.71,0 0,-2.4 -6.71,0 0,-3 7.31,0 0,-2.52 -10.35,0 z" style="font-size:19.375px;line-height:100%;fill:#ffffff;fill-opacity:1" id="path4170"/>
			<path d="m 164.65,999.78 0,13.82 10.5,0 0,-2.5 -7.46,0 0,-3.4 6.7,0 0,-2.4 -6.7,0 0,-3 7.3,0 0,-2.52 -10.34,0 z" style="font-size:19.375px;line-height:100%;fill:#ffffff;fill-opacity:1" id="path4172"/>
			<path d="m 180.22,1011.1 0,-8.8 2.17,0 q 1.12,0 1.88,0.4 0.77,0.3 1.24,0.9 0.46,0.6 0.65,1.4 0.22,0.9 0.22,1.9 0,1.2 -0.29,1.9 -0.29,0.8 -0.78,1.3 -0.48,0.5 -1.1,0.7 -0.62,0.3 -1.28,0.3 l -2.71,0 z m -3.05,-11.32 0,13.82 5.97,0 q 1.59,0 2.75,-0.5 1.18,-0.6 1.96,-1.5 0.79,-0.9 1.18,-2.2 0.39,-1.3 0.39,-2.8 0,-1.7 -0.49,-3 -0.46,-1.3 -1.31,-2.1 -0.84,-0.9 -2,-1.3 -1.14,-0.42 -2.48,-0.42 l -5.97,0 z" style="font-size:19.375px;line-height:100%;fill:#ffffff;fill-opacity:1" id="path4174"/>
		  <path d="m 193.55,1009 -2.94,0 q -0,1.3 0.46,2.2 0.49,1 1.3,1.6 0.83,0.6 1.9,0.8 1.08,0.3 2.23,0.3 1.41,0 2.48,-0.3 1.08,-0.3 1.8,-0.9 0.73,-0.6 1.1,-1.4 0.37,-0.8 0.37,-1.8 0,-1.2 -0.5,-1.9 -0.49,-0.8 -1.17,-1.2 -0.67,-0.4 -1.37,-0.6 -0.68,-0.2 -1.07,-0.3 -1.29,-0.4 -2.11,-0.6 -0.79,-0.2 -1.26,-0.4 -0.44,-0.2 -0.6,-0.5 -0.15,-0.2 -0.15,-0.6 0,-0.5 0.19,-0.8 0.19,-0.2 0.48,-0.4 0.31,-0.2 0.68,-0.3 0.37,-0.1 0.74,-0.1 0.56,0 1.03,0.1 0.48,0.1 0.85,0.3 0.37,0.3 0.58,0.7 0.23,0.4 0.27,1 l 2.95,0 q 0,-1.2 -0.47,-2 -0.44,-0.9 -1.22,-1.4 -0.77,-0.57 -1.78,-0.8 -0.99,-0.25 -2.08,-0.25 -0.93,0 -1.86,0.25 -0.93,0.25 -1.66,0.8 -0.74,0.5 -1.2,1.3 -0.45,0.8 -0.45,1.8 0,1 0.35,1.7 0.37,0.6 0.95,1.1 0.58,0.4 1.32,0.7 0.73,0.3 1.51,0.5 0.75,0.2 1.49,0.4 0.74,0.1 1.32,0.4 0.58,0.2 0.93,0.5 0.37,0.4 0.37,1 0,0.5 -0.28,0.8 -0.27,0.4 -0.67,0.5 -0.41,0.2 -0.88,0.3 -0.46,0.1 -0.87,0.1 -0.6,0 -1.16,-0.2 -0.56,-0.1 -0.99,-0.4 -0.4,-0.3 -0.66,-0.8 -0.25,-0.5 -0.25,-1.2 z" style="font-size:19.375px;line-height:100%;fill:#ffffff;fill-opacity:1" id="path4176"/>
		</g>
	</g>
</svg>